<svg xmlns="http://www.w3.org/2000/svg" viewBox="0 0 100 100" x="0px" y="0px"><g data-name="Group"><polygon data-name="Path" points="18.8 16 34.5 16 34.5 12 12 12 12 34.5 16 34.5 16 18.8 41.6 44.4 44.4 41.6 18.8 16"/><polygon data-name="Path" points="88 12 65.5 12 65.5 16 81.2 16 55.6 41.6 58.4 44.4 84 18.8 84 34.5 88 34.5 88 12"/><polygon data-name="Path" points="88 65.5 84 65.5 84 81.2 58.4 55.6 55.6 58.4 81.2 84 65.5 84 65.5 88 88 88 88 65.5"/><polygon data-name="Path" points="41.6 55.6 16 81.2 16 65.5 12 65.5 12 88 34.5 88 34.5 84 18.8 84 44.4 58.4 41.6 55.6"/></g></svg>   