<svg xmlns="http://www.w3.org/2000/svg" viewBox="0 0 100 100" x="0px" y="0px"><path fill="#ffffff" d="M57.79492,34.74316a1.0006,1.0006,0,0,0,.918,1.07617l11.27441.89941a1.00471,1.00471,0,0,0,1.07422-.90234l.001-.002v-.00879l.8623-10.21a.82444.82444,0,0,0,.00391-.085.99982.99982,0,0,0-1.99609-.083l-.6377,7.542C66.4707,29.52148,60.00391,23.3252,50,23.3252A26.6748,26.6748,0,1,0,76.6748,50a1,1,0,0,0-2,0A24.6748,24.6748,0,1,1,50,25.3252c9.376,0,15.50879,6.16211,17.97852,9.22656l-9.10742-.72656A1.01185,1.01185,0,0,0,57.79492,34.74316Z"/></svg>