<svg width="700pt" height="700pt" version="1.1" viewBox="0 0 700 700" xmlns="http://www.w3.org/2000/svg" xmlns:xlink="http://www.w3.org/1999/xlink">
 <g>
  <path d="m546 279.44c0 108.08-87.922 196-196 196s-196-87.922-196-196 87.922-196 196-196 196 87.918 196 196zm-33.602 0c0-89.602-72.801-162.4-162.4-162.4-89.602 0-162.4 72.801-162.4 162.4 0 89.602 72.801 162.4 162.4 162.4 89.602 0.55859 162.4-72.801 162.4-162.4z" fill="#fff" />
  <path d="m350 250.88c-9.5195 0-16.801 7.2812-16.801 16.801v85.68c0 9.5195 7.2812 16.801 16.801 16.801s16.801-7.2812 16.801-16.801v-85.68c0-9.5195-7.2812-16.801-16.801-16.801z" fill="#fff" />
  <path d="m350 189.28c-4.4805 0-8.9609 1.6797-11.762 5.0391-3.3594 2.8008-5.0391 7.2812-5.0391 11.758 0 1.1211 0 2.2383 0.55859 3.3594 0 1.1211 0.55859 2.2383 1.1211 3.3594 0.55859 1.1211 1.1211 1.6797 1.6797 2.8008s1.1211 1.6797 2.2383 2.8008c6.1602 6.1602 17.359 6.1602 23.52 0 0.55859-0.55859 1.6797-1.6797 2.2383-2.8008 0.55859-1.1211 1.1211-1.6797 1.6797-2.8008s0.55859-2.2383 1.1211-3.3594c0-1.1211 0.55859-2.2383 0.55859-3.3594 0-4.4805-1.6797-8.9609-5.0391-11.762-3.9141-3.3555-8.3945-5.0352-12.875-5.0352z" fill="#fff" />
 </g>
</svg>
