<svg width="700pt" height="700pt" version="1.1" viewBox="0 0 700 700" xmlns="http://www.w3.org/2000/svg" xmlns:xlink="http://www.w3.org/1999/xlink">
 <g>
  <path d="m474.04 265.42c-40.523-93.969-111.9-207.67-116.07-214.33-1.7109-2.75-4.7227-4.4219-7.9609-4.4219s-6.25 1.6719-7.9609 4.4219c-4.1719 6.6602-75.551 120.36-116.07 214.33-13.648 31.598-23.793 60.91-26.73 83.223-0.09375 0.34766-0.14062 0.70703-0.14453 1.0664-0.49609 3.707-0.74609 7.4414-0.75781 11.184-0.28125 50.652 24.754 98.098 66.727 126.46s95.336 33.883 142.22 14.719c46.891-19.16 81.113-60.477 91.211-110.11 0.10156-0.41797 0.17969-0.83984 0.23437-1.2656 1.9688-9.8086 2.9531-19.793 2.9414-29.797 0-23.141-11.328-57.703-27.633-95.473zm-227.45 0c32.797-73.309 83.891-158.86 103.42-190.85 19.527 31.988 70.621 117.54 103.42 190.85 17.156 38.305 29.289 73.305 29.289 95.473 0.011719 7.4102-0.60547 14.809-1.8477 22.117-20.246 10.039-43.145 13.453-65.441 9.7539s-42.863-14.324-58.781-30.367c-17.277-17.461-39.281-29.492-63.305-34.613-24.023-5.1211-49.02-3.1094-71.918 5.7891 6.4844-23.379 14.902-46.176 25.168-68.152z" fill="#ffffff" />
 </g>
</svg>
