<svg xmlns:rdf="http://www.w3.org/1999/02/22-rdf-syntax-ns#" xmlns:svg="http://www.w3.org/2000/svg" xmlns="http://www.w3.org/2000/svg" version="1.1" x="0px" y="0px" viewBox="0 0 100 100"><g transform="translate(0,-952.36218)"><path fill="#a40d0d" d="m 50,959.36219 c -23.7416,0 -43,19.2754 -43,43.00001 0,23.741 19.2589,43 43,43 23.7247,0 43,-19.2585 43,-43 0,-23.72521 -19.2749,-43.00001 -43,-43.00001 z m -16.7812,25.25 c 0.2665,-2e-4 0.5328,0.0901 0.7187,0.2813 L 50,1000.956 66.0625,984.89349 c 0.1841,-0.1897 0.4232,-0.2813 0.6875,-0.2813 0.2643,-0.002 0.532,0.0943 0.7188,0.2813 0.1868,0.1869 0.2812,0.4543 0.2812,0.7187 0,0.2644 -0.091,0.5348 -0.2812,0.7188 l -16.0626,16.03121 16.0626,16.0313 c 0.1898,0.184 0.2812,0.4543 0.2812,0.7187 0,0.2644 -0.094,0.5318 -0.2812,0.7188 -0.1868,0.1869 -0.4545,0.2812 -0.7188,0.2812 -0.2643,0 -0.5034,-0.091 -0.6875,-0.2812 L 50,1003.7685 33.9375,1019.831 c -0.1843,0.1889 -0.4236,0.2812 -0.6875,0.2812 -0.2639,0 -0.5322,-0.095 -0.7188,-0.2812 -0.1865,-0.1867 -0.3124,-0.4549 -0.3124,-0.7188 0,-0.2638 0.1235,-0.5345 0.3124,-0.7187 l 16.0626,-16.0313 -16.0626,-16.03121 c -0.1416,-0.1377 -0.2402,-0.338 -0.2812,-0.5312 -0.04,-0.1933 -0.012,-0.3795 0.062,-0.5626 0.074,-0.1829 0.1798,-0.3583 0.3437,-0.4687 0.1639,-0.1108 0.3651,-0.1562 0.5626,-0.1563 z" fill-opacity="1" fill-rule="evenodd" stroke="none" marker="none" visibility="visible" display="inline" overflow="visible"/></g></svg>