<svg version="1.0" xmlns="http://www.w3.org/2000/svg"
 width="600.000000pt" height="600.000000pt" viewBox="0 0 600.000000 600.000000"
 preserveAspectRatio="xMidYMid meet">
<g transform="translate(0.000000,600.000000) scale(0.100000,-0.100000)"
fill="#072322" stroke="none">
<path d="M0 3000 l0 -3000 3000 0 3000 0 0 3000 0 3000 -3000 0 -3000 0 0
-3000z m3319 1465 c41 -8 76 -17 79 -19 2 -3 -12 -42 -31 -88 -161 -377 -82
-794 207 -1084 324 -326 821 -382 1215 -137 42 26 119 89 171 141 l95 93 31
-14 c49 -24 150 -112 209 -184 69 -84 126 -194 161 -308 24 -80 27 -106 27
-230 0 -122 -4 -151 -27 -228 -86 -287 -287 -495 -566 -585 -238 -77 -479 -45
-710 94 -49 30 -93 54 -97 54 -5 0 -42 -28 -83 -62 -203 -167 -407 -265 -665
-320 -136 -29 -406 -31 -545 -4 -251 49 -468 152 -684 324 -47 38 -73 52 -81
46 -178 -128 -235 -152 -390 -163 -338 -25 -614 74 -831 301 -136 142 -220
303 -260 499 -24 120 -15 313 20 432 101 340 368 594 713 679 70 17 116 21
228 21 77 -1 164 -5 192 -11 l53 -9 58 91 c243 379 613 619 1050 681 117 17
353 12 461 -10z"/>
</g>
</svg>
