<svg xmlns="http://www.w3.org/2000/svg" xmlns:xlink="http://www.w3.org/1999/xlink" version="1.1" x="0px" y="0px" viewBox="0 0 1024 1024" style="enable-background:new 0 0 1024 1024;" xml:space="preserve"><path fill="#ffffff" d="M893.6,372.9c-210.4-210.4-552.8-210.4-763.3,0l-14.1-14.1c53.4-53.4,115.7-94.8,185.2-123c67.1-27.2,137.9-41,210.6-41    c72.7,0,143.6,13.8,210.6,41c69.4,28.2,131.7,69.5,185.2,123L893.6,372.9z"/><path fill="#ffffff" d="M779.6,486.9c-147.6-147.6-387.7-147.6-535.3,0l-14.1-14.1c38-38,82.4-67.5,131.8-87.5c47.7-19.4,98.2-29.2,149.9-29.2    s102.2,9.8,150,29.2c49.4,20,93.8,49.5,131.8,87.5L779.6,486.9z"/><g><path fill="#ffffff" d="M358.9,601.4l-14.1-14.1C389.4,542.6,448.8,518,512,518c63.2,0,122.6,24.6,167.3,69.3l-14.1,14.1    C624.2,560.5,569.8,538,512,538C454.2,538,399.8,560.5,358.9,601.4z"/></g><g><path fill="#ffffff" d="M512,829.2c-41.1,0-74.6-33.5-74.6-74.6s33.5-74.6,74.6-74.6s74.6,33.5,74.6,74.6S553.1,829.2,512,829.2z M512,699.9    c-30.1,0-54.6,24.5-54.6,54.6s24.5,54.6,54.6,54.6c30.1,0,54.6-24.5,54.6-54.6S542.1,699.9,512,699.9z"/></g></svg>